<?xml version="1.0" encoding="UTF-8"?>
<svg width="52px" height="52px" viewBox="0 0 52 52" version="1.1" xmlns="http://www.w3.org/2000/svg" xmlns:xlink="http://www.w3.org/1999/xlink">
    <!-- Generator: Sketch 52.2 (67145) - http://www.bohemiancoding.com/sketch -->
    <title>ic_player_play@2x</title>
    <desc>Created with Sketch.</desc>
    <defs>
        <filter x="-5.8%" y="-5.8%" width="111.5%" height="111.5%" filterUnits="objectBoundingBox" id="filter-1">
            <feMorphology radius="0.5" operator="dilate" in="SourceAlpha" result="shadowSpreadOuter1"></feMorphology>
            <feOffset dx="0" dy="1" in="shadowSpreadOuter1" result="shadowOffsetOuter1"></feOffset>
            <feMorphology radius="1" operator="erode" in="SourceAlpha" result="shadowInner"></feMorphology>
            <feOffset dx="0" dy="1" in="shadowInner" result="shadowInner"></feOffset>
            <feComposite in="shadowOffsetOuter1" in2="shadowInner" operator="out" result="shadowOffsetOuter1"></feComposite>
            <feColorMatrix values="0 0 0 0 0   0 0 0 0 0   0 0 0 0 0  0 0 0 0.4 0" type="matrix" in="shadowOffsetOuter1" result="shadowMatrixOuter1"></feColorMatrix>
            <feMerge>
                <feMergeNode in="shadowMatrixOuter1"></feMergeNode>
                <feMergeNode in="SourceGraphic"></feMergeNode>
            </feMerge>
        </filter>
    </defs>
    <g id="Page-1" stroke="none" stroke-width="1" fill="none" fill-rule="evenodd">
        <g id="切图" transform="translate(-1065.000000, -315.000000)">
            <g id="ic_player_play__cross" filter="url(#filter-1)" transform="translate(1065.000000, 315.000000)">
                <rect id="Rectangle-22" x="2" y="2" width="48" height="48"></rect>
                <path d="M14,6 C17.3137085,6 20,8.6862915 20,12 L20,40 C20,43.3137085 17.3137085,46 14,46 C10.6862915,46 8,43.3137085 8,40 L8,12 C8,8.6862915 10.6862915,6 14,6 Z M38,6 C41.3137085,6 44,8.6862915 44,12 L44,40 C44,43.3137085 41.3137085,46 38,46 C34.6862915,46 32,43.3137085 32,40 L32,12 C32,8.6862915 34.6862915,6 38,6 Z" id="Combined-Shape" fill="#FFFFFF" fill-rule="nonzero"></path>
            </g>
        </g>
    </g>
</svg>